<?xml version="1.0" standalone="no"?>
<!DOCTYPE svg PUBLIC "-//W3C//DTD SVG 20010904//EN"
 "http://www.w3.org/TR/2001/REC-SVG-20010904/DTD/svg10.dtd">
<svg version="1.0" xmlns="http://www.w3.org/2000/svg"
 width="320.000000pt" height="320.000000pt" viewBox="0 0 320.000000 320.000000"
 preserveAspectRatio="xMidYMid meet">
<metadata>
Created by potrace 1.11, written by Peter Selinger 2001-2013
</metadata>
<g transform="translate(0.000000,320.000000) scale(0.100000,-0.100000)"
fill="#000000" stroke="none">
<path d="M0 1600 l0 -1600 1600 0 1600 0 0 1600 0 1600 -1600 0 -1600 0 0
-1600z m2820 -41 l0 -1280 -42 3 -43 3 -3 62 -3 63 -1129 0 -1130 0 0 -65 0
-65 -45 0 -45 0 0 1280 0 1280 1220 0 1220 0 0 -1281z"/>
<path d="M470 1625 l0 -1125 1130 0 1130 0 0 1125 0 1125 -1130 0 -1130 0 0
-1125z m1780 710 l0 -225 -305 0 -305 0 0 -37 c0 -21 -3 -62 -6 -90 l-7 -53
464 -2 464 -3 3 -42 3 -43 -470 0 -470 0 -6 -57 c-3 -32 -9 -70 -11 -85 l-6
-28 366 0 366 0 0 -470 0 -470 -735 0 -735 0 0 470 0 470 329 0 c182 0 332 4
335 8 3 5 8 43 12 85 l7 77 -447 0 -447 0 3 43 3 42 446 3 447 2 6 23 c3 12 6
52 6 90 l0 67 -305 0 -305 0 0 225 0 225 650 0 650 0 0 -225z"/>
<path d="M1040 2335 l0 -135 560 0 560 0 0 135 0 135 -560 0 -560 0 0 -135z"/>
<path d="M950 1200 l0 -380 645 0 645 0 0 380 0 380 -645 0 -645 0 0 -380z
m980 -5 l0 -215 -332 2 -333 3 -3 213 -2 212 335 0 335 0 0 -215z"/>
<path d="M1350 1195 l0 -125 245 0 245 0 0 125 0 125 -245 0 -245 0 0 -125z"/>
</g>
</svg>
